<svg xmlns="http://www.w3.org/2000/svg" viewBox="0 0 94.71 92.09"><title>Asset 9</title><g id="Layer_2" data-name="Layer 2"><g id="Layer_1-2" data-name="Layer 1"><path d="M87.61,42.91a16.29,16.29,0,0,1-2.53,3.64H10a23.9,23.9,0,0,1-2.43-3.64ZM82,50.39H13.09a20.23,20.23,0,0,0,3.55,3.37H78.16A12.26,12.26,0,0,0,82,50.39Zm-8.5,6.92H54.6A41.77,41.77,0,0,0,54,65.16c5.52-.37,12.81-2.89,19.45-7.85ZM94.62,18.42c-8.61.56-21,6.36-29,15.8a32,32,0,0,0-3.83,5.14H89.47c3.74-7.48,5.7-14.87,5.15-20.94ZM41,65.16a48,48,0,0,0-.28-7.85H21.6c6.73,5,14,7.48,19.35,7.85Zm6.64.56a37.51,37.51,0,0,0,5.89-8.41H41.6a34.91,34.91,0,0,0,6,8.41ZM33.47,39.36a39.36,39.36,0,0,0-3.83-5.14c-8-9.44-20.48-15.24-29-15.8C.09,24.49,2,31.88,5.7,39.36Zm26.09,0c.18-2.15.37-4.21.37-6.64C59.93,19.64,54,6.08,47.59,0,41,6.08,35.25,19.64,35.25,32.72a38.33,38.33,0,0,0,.37,6.64ZM87.43,92.09c3.93,0,7.2-1.59,7.2-5.52,0-2.24-1.58-3.74-4.11-4.39s-6-.56-6-2.24c.19-1.13,1.22-1.41,2.81-1.41,2.44,0,2.53,1.31,2.62,2.15h4c-.28-3.08-2.81-5.23-6.83-5.23-4.21,0-6.64,2.25-6.64,5.14a4.36,4.36,0,0,0,2.25,3.93,17.44,17.44,0,0,0,4.11,1.12c1.78.18,3.37.37,3.46,1.59,0,.84-.84,1.87-2.71,1.87-2.71,0-3.27-1.5-3.27-2.53H80.14c.09,3.27,2.8,5.52,7.29,5.52Zm-22-8.32a4.74,4.74,0,0,0,4.69,4.58,4.63,4.63,0,0,0,0-9.26,4.76,4.76,0,0,0-4.69,4.68Zm4.49,8.32a8.32,8.32,0,1,1,0-16.64,7.88,7.88,0,0,1,4.68,1.41V75.64h4V91.72h-4v-1a8.63,8.63,0,0,1-4.68,1.4ZM47,83.77a4.63,4.63,0,1,0,4.58-4.68A4.71,4.71,0,0,0,47,83.77Zm9.25-13.65h3.93v21.6H56.28v-1a8.91,8.91,0,0,1-4.76,1.4,8.32,8.32,0,1,1,4.76-15.23V70.12Zm-18.7,4v-4h3.93v4Zm3.93,17.58H37.58V75.64h3.93V91.72Zm-19.26-8A4.68,4.68,0,1,0,27,79.09a4.75,4.75,0,0,0-4.77,4.68Zm4.58,8.32A8.32,8.32,0,1,1,31.6,76.86V70.12h4v21.6h-4v-1a9.19,9.19,0,0,1-4.77,1.4Zm-23-8.32a4.71,4.71,0,0,0,4.58,4.58,4.63,4.63,0,1,0,0-9.26,4.73,4.73,0,0,0-4.58,4.68Zm4.49,8.32a8.32,8.32,0,0,1,0-16.64,8.65,8.65,0,0,1,4.86,1.41V75.64h3.93V91.72H13.18v-1a9.26,9.26,0,0,1-4.86,1.4Z"/></g></g></svg>